<?xml version="1.0" standalone="no"?>
<svg xmlns="http://www.w3.org/2000/svg" width="24" height="24"><rect width="24" height="24" opacity="0"></rect><g><path d="M18.7 9.62L21.67 9.62Q21.82 9.62 21.91 9.52Q22.01 9.41 22.01 9.26Q22.01 9.12 21.91 9.02L19.06 6.19Q18.96 6.1 18.82 6.1Q18.67 6.1 18.56 6.19Q18.46 6.29 18.46 6.43L18.46 8.11L2.66 8.11Q2.35 8.11 2.14 8.33Q1.92 8.54 1.92 8.86Q1.92 9.17 2.14 9.4Q2.35 9.62 2.66 9.62ZM5.28 14.38L2.3 14.38Q2.16 14.38 2.06 14.48Q1.97 14.59 1.97 14.74Q1.97 14.88 2.06 14.98L4.94 17.78Q5.04 17.88 5.18 17.88Q5.33 17.88 5.44 17.78Q5.54 17.69 5.54 17.54L5.54 15.86L21.34 15.86Q21.65 15.86 21.86 15.65Q22.08 15.43 22.08 15.12Q22.08 14.81 21.86 14.59Q21.65 14.38 21.34 14.38Z" fill="rgba(0,0,0,0.9019607843137255)"></path></g></svg>