<?xml version="1.0" standalone="no"?>
<svg xmlns="http://www.w3.org/2000/svg" width="24" height="24"><rect width="24" height="24" opacity="0"></rect><g><path d="M21.24 4.99Q21.55 4.99 21.78 4.78Q22.01 4.56 22.01 4.25Q22.01 3.94 21.78 3.72Q21.55 3.5 21.24 3.5L2.74 3.5Q2.42 3.5 2.21 3.72Q1.99 3.94 1.99 4.25Q1.99 4.56 2.21 4.78Q2.42 4.99 2.74 4.99L21.24 4.99ZM21.24 15.24Q21.55 15.24 21.78 15.02Q22.01 14.81 22.01 14.5Q22.01 14.18 21.78 13.97Q21.55 13.75 21.24 13.75L2.74 13.75Q2.42 13.75 2.21 13.97Q1.99 14.18 1.99 14.5Q1.99 14.81 2.21 15.02Q2.42 15.24 2.74 15.24L21.24 15.24ZM12.74 10.25Q13.06 10.25 13.28 10.03Q13.51 9.82 13.51 9.5Q13.51 9.19 13.28 8.98Q13.06 8.76 12.74 8.76L2.74 8.76Q2.42 8.76 2.21 8.98Q1.99 9.19 1.99 9.5Q1.99 9.82 2.21 10.03Q2.42 10.25 2.74 10.25L12.74 10.25ZM12.74 20.5Q13.06 20.5 13.28 20.28Q13.51 20.06 13.51 19.75Q13.51 19.44 13.28 19.22Q13.06 19.01 12.74 19.01L2.74 19.01Q2.42 19.01 2.21 19.22Q1.99 19.44 1.99 19.75Q1.99 20.06 2.21 20.28Q2.42 20.5 2.74 20.5L12.74 20.5Z" fill="rgba(0,0,0,0.9019607843137255)"></path></g></svg>