<?xml version="1.0" standalone="no"?>
<svg xmlns="http://www.w3.org/2000/svg" width="24" height="24"><rect width="24" height="24" opacity="0"></rect><g><path d="M9.98 18.74Q9.98 19.58 10.57 20.17Q11.16 20.76 12 20.76Q12.84 20.76 13.43 20.17Q14.02 19.58 14.02 18.74Q14.02 17.93 13.43 17.34Q12.84 16.75 12 16.75Q11.16 16.75 10.57 17.34Q9.98 17.93 9.98 18.74Z" fill="rgba(0,0,0,0.9019607843137255)"></path><path d="M6.77 14.42Q6.58 14.66 6.6 14.96Q6.62 15.26 6.86 15.46Q7.1 15.65 7.42 15.62Q7.73 15.6 7.92 15.36Q8.66 14.42 9.73 13.92Q10.8 13.42 12 13.42Q13.2 13.42 14.27 13.92Q15.34 14.42 16.08 15.36Q16.25 15.58 16.56 15.61Q16.87 15.65 17.11 15.46Q17.35 15.26 17.38 14.95Q17.4 14.64 17.21 14.4Q16.25 13.22 14.88 12.58Q13.51 11.93 12 11.93Q10.46 11.93 9.1 12.58Q7.73 13.22 6.77 14.4Z" fill="rgba(0,0,0,0.9019607843137255)"></path><path d="M20.04 12.58Q20.28 12.38 20.32 12.07Q20.35 11.76 20.16 11.52Q18.65 9.67 16.51 8.65Q14.38 7.63 12 7.63Q9.62 7.63 7.49 8.65Q5.35 9.67 3.84 11.52Q3.65 11.76 3.68 12.07Q3.72 12.38 3.96 12.58Q4.2 12.77 4.51 12.73Q4.82 12.7 5.02 12.46Q6.29 10.87 8.12 10.01Q9.96 9.14 12 9.14Q14.06 9.14 15.89 10.01Q17.71 10.87 19.01 12.46Q19.18 12.7 19.48 12.73Q19.78 12.77 20.04 12.58Z" fill="rgba(0,0,0,0.9019607843137255)"></path><path d="M0.38 9.05Q0.58 9.24 0.86 9.25Q1.15 9.26 1.39 9.1L1.44 9.05Q3.58 6.96 6.26 5.84Q8.95 4.73 11.95 4.73Q14.95 4.73 17.7 5.87Q20.45 7.01 22.56 9.12Q22.78 9.34 23.09 9.34Q23.4 9.34 23.62 9.12Q23.83 8.9 23.83 8.59Q23.83 8.28 23.62 8.06Q21.29 5.74 18.25 4.49Q15.22 3.24 11.95 3.24Q8.69 3.24 5.7 4.46Q2.71 5.69 0.38 7.99L0.34 8.04Q0.14 8.26 0.16 8.54Q0.17 8.83 0.38 9.05Z" fill="rgba(0,0,0,0.9019607843137255)"></path></g></svg>